<?xml version="1.0" encoding="UTF-8" standalone="no"?>
<svg
   xmlns:dc="http://purl.org/dc/elements/1.1/"
   xmlns:cc="http://creativecommons.org/ns#"
   xmlns:rdf="http://www.w3.org/1999/02/22-rdf-syntax-ns#"
   xmlns:svg="http://www.w3.org/2000/svg"
   xmlns="http://www.w3.org/2000/svg"
   xmlns:sodipodi="http://sodipodi.sourceforge.net/DTD/sodipodi-0.dtd"
   xmlns:inkscape="http://www.inkscape.org/namespaces/inkscape"
   id="svg2"
   viewBox="0 0 419.48 357.55"
   version="1.0"
   inkscape:version="0.91 r13725"
   sodipodi:docname="Give-Up.svg"
   inkscape:export-filename="C:\Users\Jim\Documents\PyCharm Projects\Cryptogram_Solver\images\work folder\Give-up.png"
   inkscape:export-xdpi="90"
   inkscape:export-ydpi="90">
  <defs
     id="defs3354" />
  <sodipodi:namedview
     pagecolor="#ffffff"
     bordercolor="#666666"
     borderopacity="1"
     objecttolerance="10"
     gridtolerance="10"
     guidetolerance="10"
     inkscape:pageopacity="0"
     inkscape:pageshadow="2"
     inkscape:window-width="1366"
     inkscape:window-height="746"
     id="namedview3352"
     showgrid="false"
     inkscape:zoom="0.66004757"
     inkscape:cx="209.74001"
     inkscape:cy="178.77499"
     inkscape:window-x="1592"
     inkscape:window-y="-8"
     inkscape:window-maximized="1"
     inkscape:current-layer="svg2" />
  <metadata
     id="metadata3350">
    <rdf:RDF>
      <cc:Work>
        <dc:format>image/svg+xml</dc:format>
        <dc:type
           rdf:resource="http://purl.org/dc/dcmitype/StillImage" />
        <cc:license
           rdf:resource="http://creativecommons.org/publicdomain/zero/1.0/" />
        <dc:publisher>
          <cc:Agent
             rdf:about="http://openclipart.org/">
            <dc:title>Openclipart</dc:title>
          </cc:Agent>
        </dc:publisher>
        <dc:title></dc:title>
        <dc:date>2013-09-29T19:41:52</dc:date>
        <dc:description>sad face, freehand</dc:description>
        <dc:source>https://openclipart.org/detail/183963/sad-face-by-arvin61r58-183963</dc:source>
        <dc:creator>
          <cc:Agent>
            <dc:title>Arvin61r58</dc:title>
          </cc:Agent>
        </dc:creator>
        <dc:subject>
          <rdf:Bag>
            <rdf:li>black &amp; white</rdf:li>
            <rdf:li>black and white</rdf:li>
            <rdf:li>cartoon</rdf:li>
            <rdf:li>emoticon</rdf:li>
            <rdf:li>emoticons</rdf:li>
            <rdf:li>expression</rdf:li>
            <rdf:li>face</rdf:li>
            <rdf:li>freehand</rdf:li>
            <rdf:li>frown</rdf:li>
            <rdf:li>gray</rdf:li>
            <rdf:li>grey</rdf:li>
            <rdf:li>sad</rdf:li>
            <rdf:li>smiley</rdf:li>
            <rdf:li>smileys</rdf:li>
            <rdf:li>symbol</rdf:li>
            <rdf:li>symbols</rdf:li>
          </rdf:Bag>
        </dc:subject>
      </cc:Work>
      <cc:License
         rdf:about="http://creativecommons.org/publicdomain/zero/1.0/">
        <cc:permits
           rdf:resource="http://creativecommons.org/ns#Reproduction" />
        <cc:permits
           rdf:resource="http://creativecommons.org/ns#Distribution" />
        <cc:permits
           rdf:resource="http://creativecommons.org/ns#DerivativeWorks" />
      </cc:License>
    </rdf:RDF>
  </metadata>
  <g
     id="g4204"
     transform="matrix(1.1100204,0,0,1.1100204,23.350358,-57.752689)"
     inkscape:export-xdpi="90"
     inkscape:export-ydpi="90">
    <g
       id="g4195">
      <ellipse
         style="fill:#ffffff;fill-rule:evenodd;stroke:#000000;stroke-width:16;stroke-linecap:butt;stroke-linejoin:miter;stroke-miterlimit:4;stroke-dasharray:none;stroke-opacity:1"
         id="path3356"
         cx="-7.7130399"
         cy="351.76831"
         rx="135.63628"
         ry="136.75354" />
      <path
         style="fill-rule:evenodd"
         inkscape:connector-curvature="0"
         id="path12"
         d="m -73.038585,268.34607 2.234462,-0.59591 2.234462,-0.37241 2.159735,-0.29792 2.160226,-0.14897 2.085006,-0.0745 2.0854,0.14897 2.010918,0.22345 2.010917,0.37242 1.861954,0.37242 1.861953,0.59586 1.787472,0.59585 1.787471,0.81931 1.638508,0.8193 1.638507,0.89378 1.564025,1.0428 1.564026,1.11728 1.340628,1.11728 1.41511,1.19177 1.266146,1.26624 1.266146,1.41521 1.117182,1.34073 1.117182,1.56417 1.0427,1.56417 0.968218,1.63866 0.819254,1.56417 0.819253,1.63865 0.67029,1.63866 0.744771,1.78762 0.446873,1.71313 0.521325,1.78762 0.372391,1.78762 0.372391,1.8621 0.148959,1.78762 0.07448,1.78762 0,1.78762 -0.07448,1.78762 -0.223436,1.78762 -0.223437,1.78762 -0.37239,1.78762 -0.372391,1.8621 -0.595808,1.71313 -0.670289,1.71314 -0.744772,1.63866 -0.819253,1.71313 -0.968218,1.56417 -1.0427,1.56418 -1.191664,1.48969 -1.266146,1.56417 -1.41511,1.34073 -1.564026,1.34072 -1.638507,1.26625 -1.712989,1.19176 -1.861954,1.04275 -2.010918,1.11728 -2.085399,0.96832 -2.159882,0.96826 -2.383328,0.74482 -2.457761,0.74482 -2.606726,0.59586 -2.681207,0.59586 -2.904653,0.37241 -2.904654,0.29794 -3.128099,0.14897 -3.1281,0.14896 -2.010918,-0.0745 -1.861953,-0.14897 -1.861954,-0.29793 -1.787471,-0.22345 -1.787472,-0.37242 -1.638507,-0.4469 -1.638507,-0.52138 -1.564026,-0.4469 -1.564025,-0.74482 -1.489543,-0.67034 -1.41511,-0.8193 -1.340629,-0.74482 -1.340628,-0.89379 -1.266146,-0.89378 -1.191664,-1.04275 -1.0427,-0.96832 -1.117182,-1.11728 -1.0427,-1.11728 -0.968214,-1.19176 -0.89374,-1.19171 -0.89374,-1.34073 -0.74477,-1.26625 -0.74477,-1.34072 -0.59581,-1.26625 -0.67029,-1.4152 -0.52132,-1.41521 -0.52133,-1.41521 -0.29791,-1.41521 -0.44687,-1.48969 -0.22343,-1.48969 -0.22344,-1.48969 0,-1.41521 -0.14995,-1.55798 0,-3.05386 0.22344,-1.48969 0.14895,-1.56418 0.29792,-1.56417 0.29791,-1.48969 0.52133,-1.48969 0.44687,-1.56417 0.52132,-1.48969 0.67029,-1.48969 0.74477,-1.41521 0.74478,-1.41521 0.89373,-1.41521 0.89374,-1.34073 1.11718,-1.34072 1.0427,-1.41521 1.191664,-1.34073 1.191664,-1.26624 1.41511,-1.19177 1.340628,-1.26624 1.489544,-1.11728 1.564025,-1.11728 1.712989,-0.96827 1.71299,-1.11728 1.787471,-0.89378 1.936436,-0.96827 2.010917,-0.8193 2.010918,-0.89379 2.234364,-0.67034 2.234364,-0.67033 2.457761,-0.52138 z" />
      <path
         style="fill-rule:evenodd"
         inkscape:connector-curvature="0"
         id="path14"
         d="m 48.287062,271.10196 0.595807,-0.44691 0.744772,-0.22345 0.670289,-0.29793 0.893736,-0.14897 0.819254,-0.22345 0.893735,-0.0745 2.904654,0 1.0427,0.0745 1.0427,0.0745 1.117181,0.22345 1.117182,0.22345 1.117182,0.22346 1.191664,0.29793 1.266147,0.37242 1.117182,0.29794 1.266146,0.37242 1.191664,0.4469 1.266146,0.52138 1.191664,0.4469 1.266146,0.59586 1.266146,0.52137 1.266146,0.67034 1.191664,0.59586 1.191664,0.67034 1.191664,0.74482 1.266146,0.74482 1.191664,0.74482 1.191665,0.8193 1.191664,0.8193 1.191664,0.89379 1.0427,0.8193 1.117181,0.89379 1.0427,0.89378 1.0427,0.96827 0.968218,0.96827 0.968218,1.04279 0.968218,0.96827 0.968218,1.11728 0.744771,1.0428 0.819254,1.0428 0.744771,1.11728 0.744772,1.11728 0.595807,1.11728 0.67029,1.11728 0.521325,1.19176 0.595808,1.26625 0.37239,1.11728 0.372391,1.26624 0.297914,1.19176 0.297913,1.26625 0.148959,1.26624 0.07448,1.26625 0,1.26624 0.07448,1.34073 -0.223432,1.26624 -0.148959,1.26625 -0.297913,1.34072 -0.372391,1.34073 -0.521326,1.34073 -0.521325,1.34072 -0.670289,1.34073 -0.67029,1.41521 -0.372391,0.4469 -0.37239,0.4469 -0.372396,0.44691 -0.297909,0.4469 -0.372395,0.37242 -0.297914,0.4469 -0.372391,0.44691 -0.297913,0.4469 -0.819254,0.74482 -0.744771,0.8193 -0.744772,0.74482 -0.744772,0.81931 -0.446867,0.29793 -0.372396,0.29794 -0.446868,0.29793 -0.372391,0.37242 -0.446872,0.29793 -0.372391,0.29794 -0.446868,0.29793 -0.372396,0.37242 -0.446867,0.22346 -0.446868,0.29793 -0.446873,0.29794 -0.446868,0.29794 -0.446873,0.29793 -0.446868,0.29794 -0.446872,0.29793 -0.372391,0.29794 -0.521325,0.22345 -0.446868,0.22345 -0.521326,0.22345 -0.446868,0.22345 -0.521325,0.22345 -0.446873,0.22345 -0.446868,0.22346 -0.446867,0.29793 -0.521326,0.14897 -0.521325,0.22345 -0.521326,0.22346 -0.446867,0.22345 -0.521326,0.14896 -0.446868,0.22346 -0.521325,0.22345 -0.446868,0.22345 -0.595807,0.14897 -0.521326,0.14896 -0.521325,0.14897 -0.446868,0.22345 -0.595807,0.14897 -0.521326,0.22345 -0.521325,0.14897 -0.446868,0.22345 -0.595807,0.14897 -0.521326,0.14897 -0.521325,0.14897 -0.521326,0.22345 -0.595807,0.14897 -0.446868,0.22345 -0.595807,0.14897 -0.446873,0.22345 -2.010918,0.37242 -1.936435,0.29793 -1.936436,0.14897 -1.787472,0.22345 -1.861953,0 -1.787472,0.0745 -1.787471,-0.0745 -1.712989,-0.0745 -1.787472,-0.29794 -1.638507,-0.22345 -1.71299,-0.37242 -1.564025,-0.37242 -1.638507,-0.52138 -1.564025,-0.52137 -1.489544,-0.59586 -1.41511,-0.59585 -1.489543,-0.74482 -1.41511,-0.74483 -1.340629,-0.89378 -1.266146,-0.8193 -1.266146,-0.96827 -1.191664,-0.89378 -1.117182,-1.04275 -1.0427,-0.96832 -1.117182,-1.11728 -0.893735,-1.11728 -0.968218,-1.19176 -0.744772,-1.19172 -0.893736,-1.26624 -0.670289,-1.19176 -0.67029,-1.26625 -0.446867,-1.26624 -0.595808,-1.41521 -0.446873,-1.34073 -0.446868,-1.41521 -0.223436,-1.4152 -0.297913,-1.48969 -0.148955,-1.41521 -0.07448,-1.48969 0.07448,-1.41521 0,-1.56418 0.148955,-1.48969 0.223436,-1.48969 0.446868,-1.48969 0.372395,-1.48969 0.521326,-1.48969 0.670289,-1.48969 0.744772,-1.48969 0.744771,-1.56417 0.893736,-1.56418 0.968218,-1.48969 1.117182,-1.48969 1.117182,-1.56417 1.340628,-1.41521 1.41511,-1.48969 1.564026,-1.34073 1.564025,-1.48969 1.787471,-1.4152 1.787472,-1.34073 2.010918,-1.26625 2.010917,-1.34072 2.234364,-1.34073 2.234364,-1.26624 2.532292,-1.11728 z" />
      <path
         style="fill:#ffffff;fill-rule:evenodd"
         inkscape:connector-curvature="0"
         id="path16"
         d="m -42.876049,288.23347 -0.372395,0.14897 -0.372391,0.14897 -0.446868,0.14897 -0.372391,0.14897 -0.446872,0.0745 -0.446868,0.14897 -0.446873,0.14897 -0.372391,0.14897 -0.521325,0 -0.521326,0.14897 -0.521325,0 -0.446873,0.14897 -0.521325,0.0745 -0.521325,0.14897 -0.521326,0.0745 -0.446868,0.14897 -0.595807,0 -0.521325,0.14897 -0.595808,0.0745 -0.446868,0.14897 -0.595807,0.0745 -0.521326,0.14897 -0.521325,0.22345 -0.446868,0.22345 -0.521325,0.14897 -0.446868,0.14897 -0.446873,0.22345 -0.446868,0.22345 -0.446873,0.22345 -0.446867,0.29794 -0.446873,0.29794 -0.297914,0.37242 -0.670289,0.22345 -0.521326,0.37242 -0.595807,0.29794 -0.446873,0.37242 -0.595807,0.29793 -0.521326,0.37242 -0.446867,0.29794 -0.446868,0.4469 -0.521326,0.37242 -0.446873,0.37242 -0.446867,0.37242 -0.446873,0.44691 -0.446868,0.37242 -0.372391,0.37242 -0.37239,0.4469 -0.372396,0.4469 -0.446868,0.37242 -0.372391,0.4469 -0.372395,0.37242 -0.372391,0.44691 -0.372391,0.4469 -0.297913,0.4469 -0.372391,0.4469 -0.223436,0.52138 -0.372391,0.4469 -0.297914,0.4469 -0.297913,0.52138 -0.223437,0.52137 -0.297913,0.4469 -0.223437,0.52138 -0.223436,0.52137 -0.223436,0.59586 -0.297914,0.4469 -0.223436,0.52138 -0.223437,0.52137 -0.223436,0.59586 -0.223436,0.52137 -0.223437,0.59586 -0.223436,0.52137 -0.223437,0.59586 -0.223436,0.52137 -0.223436,0.59586 -0.223437,0.59586 -0.148954,0.59585 -0.223437,0.59586 -0.148954,0.59586 -0.148954,0.67034 -0.148954,0.67034 -0.223437,0.59585 -0.148954,0.67034 -0.148954,0.59586 -0.148955,0.67034 -0.223436,0.67033 -0.148955,0.67034 -0.148954,0.67034 -0.148954,0.74482 -0.223437,0.67034 -0.148954,0.67034 -0.148954,0.67034 -0.07448,0.74482 -0.223437,0.67034 -0.148954,0.74482 -0.148954,0.74482 -0.07448,0.8193 -1.41511,-0.0745 -1.266146,-0.14897 -1.340628,-0.22345 -1.117182,-0.14897 -1.266146,-0.37242 -1.0427,-0.37242 -1.117182,-0.52137 -0.968218,-0.44691 -1.0427,-0.59586 -0.968218,-0.59585 -0.893735,-0.74483 -0.819254,-0.67033 -0.893736,-0.81931 -0.670289,-0.74482 -0.744772,-0.8193 -0.595807,-0.8193 -0.67029,-0.96832 -0.595807,-0.96832 -0.521326,-0.96826 -0.446872,-0.96827 -0.446868,-1.11728 -0.372391,-1.04275 -0.297914,-1.04275 -0.223436,-1.04275 -0.223436,-1.19176 -0.148955,-1.11728 -0.148954,-1.11728 0,-2.30904 0.07448,-1.11728 0.148955,-1.11728 0.223436,-1.11728 0.148954,-1.19177 0.297914,-1.19176 0.297913,-1.11728 0.446868,-1.11728 0.446873,-1.11728 0.521325,-1.11728 0.595808,-1.11728 0.670289,-0.96827 0.67029,-1.11728 0.744771,-0.96826 0.819254,-0.96827 0.893736,-0.89379 0.893736,-0.89378 1.117182,-0.89379 1.042699,-0.8193 1.191664,-0.67034 1.117182,-0.8193 1.340629,-0.67034 1.266146,-0.67034 1.489543,-0.4469 1.41511,-0.59586 1.564025,-0.4469 1.564026,-0.4469 1.787471,-0.22345 1.638508,-0.37242 1.861953,-0.14897 1.861954,-0.22345 4.021835,0 2.159882,0.0745 2.159882,0.22345 2.308846,0.29794 1.340628,0 0.446868,0.0745 0.446873,0 0.521325,0.14897 0.521325,0.0745 0.595808,0.22345 0.446873,0.0745 0.521325,0.14896 0.521325,0.22346 0.521326,0.22345 0.446868,0.22345 0.595807,0.22345 0.446873,0.22345 0.595807,0.29794 0.446873,0.22345 0.521325,0.22345 0.446868,0.29794 0.521326,0.29794 0.446867,0.29793 0.521326,0.37242 0.446868,0.29793 0.521325,0.37242 0.372391,0.29794 0.446873,0.37242 0.446867,0.29793 0.446873,0.4469 0.744772,0.74482 0.744771,0.81931 z" />
      <path
         style="fill:#ffffff;fill-rule:evenodd"
         inkscape:connector-curvature="0"
         id="path18"
         d="m 66.831378,323.24152 0.07448,-0.89378 0.148954,-0.8193 0.07448,-0.81931 0.148959,-0.8193 0,-0.89378 0.07448,-0.81931 0,-0.8193 0.07448,-0.74482 -0.07448,-0.89379 -0.07448,-0.74482 -0.07448,-0.8193 -0.07448,-0.74482 -0.148954,-0.8193 -0.148959,-0.74482 -0.148955,-0.74482 -0.148959,-0.67034 -0.297913,-0.81931 -0.223432,-0.74482 -0.223436,-0.74482 -0.223437,-0.67034 -0.37239,-0.74482 -0.297914,-0.67034 -0.297914,-0.67033 -0.297913,-0.67034 -0.372391,-0.67034 -0.372391,-0.67034 -0.446872,-0.67034 -0.372391,-0.59586 -0.446873,-0.67033 -0.446868,-0.59586 -0.446868,-0.59586 -0.372395,-0.52137 -0.521326,-0.67034 -0.521325,-0.52138 -0.521325,-0.59585 -0.446868,-0.4469 -0.595808,-0.59586 -0.521325,-0.52138 -0.595807,-0.4469 -0.521326,-0.4469 -0.595807,-0.52137 -0.595808,-0.44691 -0.595807,-0.4469 -0.595807,-0.37242 -0.595808,-0.4469 -0.595807,-0.29794 -0.595808,-0.37242 -0.595807,-0.22345 -0.67029,-0.37242 -0.670289,-0.29793 -0.67029,-0.29794 -0.670289,-0.22345 -0.67029,-0.29794 -0.670289,-0.22345 -0.67029,-0.14897 -0.595807,-0.14897 -0.67029,-0.22345 -0.670289,-0.14897 -0.67029,-0.14897 -0.670289,0 -0.67029,-0.14897 -1.936386,0 0.223436,-0.67034 0.297914,-0.52137 0.297913,-0.52138 0.372391,-0.4469 0.372391,-0.4469 0.446872,-0.4469 0.446868,-0.37242 0.521326,-0.29794 0.446872,-0.4469 0.521326,-0.29794 0.521325,-0.22345 0.595808,-0.22345 0.521325,-0.22345 0.670289,-0.14897 0.67029,-0.14897 0.670289,0 0.595808,-0.14897 1.340579,0 0.744772,0.0745 0.670289,0 0.819254,0.14897 0.744771,0.14897 0.819254,0.22345 0.744772,0.14897 0.819253,0.29793 0.372391,0.0745 0.372391,0.14897 0.446872,0.22345 0.446868,0.22345 0.372396,0.14897 0.446868,0.14897 0.372391,0.22345 0.446872,0.22345 0.372391,0.22345 0.446868,0.22345 0.446873,0.29794 0.446868,0.29794 0.297913,0.0745 0.372396,0.14897 0.446868,0.0745 0.446867,0.14897 1.787472,0 0.446873,-0.0745 0.446868,-0.0745 0.446872,-0.0745 0.521326,-0.0745 0.446873,-0.14897 0.521325,0 0.521325,-0.14897 0.521326,0 0.446867,-0.14897 0.521326,-0.0745 0.521325,-0.0745 2.010869,0 0.521325,0.0745 0.446873,0 0.521325,0.14897 0.446873,0.14897 0.521325,0.22345 0.446873,0.14897 0.521326,0.29794 0.446867,0.29794 0.521326,0.4469 0.744771,0.59586 0.744772,0.67033 0.744772,0.74482 0.744771,0.81931 0.297914,0.37242 0.372395,0.4469 0.297914,0.4469 0.372391,0.4469 0.223436,0.44691 0.372391,0.4469 0.223436,0.4469 0.372391,0.52138 0.223436,0.4469 0.223432,0.4469 0.223436,0.4469 0.297914,0.52138 0.148954,0.4469 0.223436,0.52137 0.223437,0.52138 0.223436,0.52137 0.148954,0.44691 0.14896,0.52137 0.148954,0.52137 0.148959,0.52138 0.07448,0.52137 0.148955,0.52138 0.07448,0.52137 0.148954,0.59586 0,1.48964 0.07448,0.52138 -0.07448,0.4469 0,0.59585 -0.07448,0.44691 0,0.59585 -0.148959,0.44691 -0.07448,0.52137 -0.148955,0.52137 -0.07448,0.52138 -0.148954,0.52137 -0.148959,0.52138 -0.148955,0.52137 -0.148959,0.52138 -0.297913,0.4469 -0.223432,0.44691 -0.297914,0.4469 -0.223436,0.4469 -0.372391,0.4469 -0.297913,0.44691 -0.297914,0.4469 -0.297913,0.52138 -0.446873,0.37242 -0.372391,0.4469 -0.446868,0.37242 -0.372395,0.4469 -0.521326,0.37242 -0.446872,0.37242 -0.521326,0.37242 -0.446873,0.44691 -0.819253,0.29793 -0.744772,0.37242 -0.670289,0.37242 -0.67029,0.37242 -0.670289,0.22345 -0.67029,0.37242 -0.670289,0.22345 -0.595808,0.37242 -0.670289,0.22345 -0.67029,0.29794 -0.670289,0.29793 -0.595808,0.29794 -0.744771,0.22345 -0.67029,0.29794 -0.744772,0.29793 -0.670289,0.29794 z" />
      <path
         style="fill-rule:evenodd"
         inkscape:connector-curvature="0"
         id="path20"
         d="m -14.051731,329.34758 1.117182,-0.74482 1.117181,-0.4469 0.893736,-0.44691 0.893736,-0.22345 0.6702895,-0.22345 0.5958074,-0.0745 0.4468728,0 0.3723907,0.14897 0.1489543,0.14897 0.1489593,0.29794 0,0.37242 -0.074477,0.52137 -0.2234364,0.4469 -0.2234364,0.67034 -0.2979135,0.59586 -0.3723907,0.8193 -0.5213254,0.67034 -0.5213254,0.89378 -0.6702892,0.89379 -0.595808,0.96832 -0.744772,0.89378 -0.670289,1.11728 -0.819254,1.04275 -0.744771,1.19176 -0.893736,1.11728 -0.893736,1.11728 -0.893735,1.19176 -0.819254,1.26625 -0.893736,1.19176 -0.893736,1.26625 -0.893735,1.26624 -0.893736,1.34073 -0.893736,1.19176 -0.893736,1.26624 -0.893735,1.26625 -0.819254,1.26624 -0.819254,1.19176 -0.744771,1.19172 -0.67029,1.19176 -0.595807,1.26624 -0.67029,1.11729 -0.521325,1.11728 -0.521325,1.04274 -0.372391,1.11728 -0.446868,0.96832 -0.223436,1.04275 -0.14896,0.89379 0,0.89378 -0.07448,0.74482 0.148959,0.74482 0.148955,0.67034 0.37239,0.67034 0.372391,0.52137 0.595808,0.52138 0.670289,0.37242 0.893736,0.37242 0.893736,0.14897 1.117182,0.22345 2.681207,0 1.489543,-0.14897 1.712989,-0.22345 1.861954,-0.37242 2.0854,-0.37242 0.893735,-0.37242 0.893736,-0.29794 0.819254,-0.29793 0.893736,-0.29794 0.744771,-0.37242 0.819254,-0.37242 0.7447716,-0.37242 0.8192537,-0.29793 0.5958074,-0.4469 0.6702895,-0.37242 0.5958075,-0.44691 0.6702895,-0.37242 0.5213254,-0.4469 0.5958074,-0.44691 0.5958074,-0.4469 0.5958075,-0.4469 0.4468678,-0.52137 0.4468728,-0.52138 0.4468679,-0.52137 0.5213254,-0.52138 0.3723907,-0.52137 0.4468728,-0.52138 0.37239068,-0.52137 0.44686787,-0.52138 0.29791355,-0.59585 0.37239071,-0.52138 0.37239563,-0.52137 0.37239071,-0.52138 0.29791355,-0.59585 0.3723907,-0.52138 0.2979136,-0.52137 0.3723907,-0.52138 0.2234364,-0.67034 0.2979135,-0.52137 0.2234364,-0.59586 0.2979136,-0.52137 0.2234314,-0.59586 0.2979136,-0.52137 0.2979135,-0.59586 0.2979136,-0.52137 0.2234364,-0.59586 0.2979135,-0.52137 0.2979136,-0.59586 0.2979135,-0.52138 0.2234364,-0.52137 0.2979136,-0.52137 0.2979135,-0.52138 0.3723908,-0.4469 0.2234364,-0.52138 0.3723907,-0.52137 0.2979135,-0.52137 0.3723907,-0.44691 0.2979136,-0.4469 0.3723907,-0.44691 0.3723907,-0.4469 0.4468728,-0.4469 0.3723907,-0.4469 0.4468729,-0.44691 0.446868,-0.37242 0.521325,-0.37242 0.446868,-0.4469 0.521325,-0.29794 0.521326,-0.37242 0.595807,-0.22345 0.446873,-0.37242 0.446868,-0.29793 0.446872,-0.22345 0.521326,-0.14897 0.446868,-0.22345 0.521325,-0.0745 1.117133,0 0.446873,-0.0745 0.521325,0 0.521325,0.0745 0.521326,0.14896 0.446868,0.14897 0.521325,0.22345 0.446873,0.22345 0.521325,0.29794 0.372396,0.22345 0.446868,0.37242 0.297913,0.29793 0.372391,0.44691 0.297913,0.37242 0.297914,0.4469 0.223436,0.44691 0.223437,0.59585 0.07448,0.52138 0.148954,0.59585 0.07448,0.59586 0.07448,0.67034 -0.148959,0.67034 -0.07448,0.67034 -0.148954,0.74482 -0.14896,0.8193 -1.41511,3.12834 -1.340628,2.97939 -1.489543,2.83036 -1.489543,2.68141 -1.638508,2.45796 -1.638507,2.38347 -1.712989,2.16003 -1.638508,2.08555 -1.8619531,1.78762 -1.8619535,1.71313 -1.8619536,1.56418 -1.8619536,1.48969 -1.9364356,1.19176 -1.93643562,1.19176 -1.93643568,0.96832 -1.9364356,0.96831 -2.0109177,0.67034 -2.0109177,0.59586 -1.9364356,0.4469 -1.9364357,0.4469 -2.010918,0.22346 -1.936435,0.22345 -3.723908,0 -1.861953,-0.22345 -1.787472,-0.22346 -1.787471,-0.4469 -1.638507,-0.37242 -1.71299,-0.59585 -1.564025,-0.59586 -1.564025,-0.74482 -1.340629,-0.74482 -1.489543,-0.96832 -1.340628,-0.96832 -1.266146,-1.04274 -1.0427,-1.04275 -1.117182,-1.19177 -0.893736,-1.19176 -0.893735,-1.34072 -0.67029,-1.26625 -0.744771,-1.48969 -0.446873,-1.41521 -0.446868,-1.48969 -0.223437,-1.48969 -0.148954,-1.56417 0,-1.56418 0.148954,-1.63865 0.372391,-1.63865 0.372396,-1.78762 0.595807,-1.71314 0.744772,-1.78762 0.968218,-1.71314 1.0427,-1.78762 1.340628,-1.78761 1.489543,-1.78762 1.712989,-1.71314 1.787472,-1.78762 2.010917,-1.78762 2.234364,-1.78762 2.532243,-1.78762 2.681208,-1.78762 2.904653,-1.78761 3.1281,-1.71314 3.351546,-1.63866 z" />
      <path
         style="fill-rule:evenodd"
         inkscape:connector-curvature="0"
         id="path22"
         d="m -18.147017,386.25385 1.340629,-0.44691 1.340628,-0.22345 1.340628,-0.29793 1.41511,-0.14897 1.266146,-0.22345 2.6067748,0 1.2661461,0.0745 1.191664,0 1.1916641,0.22346 1.191664,0.14896 1.2661461,0.29794 1.117182,0.22345 1.11718195,0.37242 1.11718197,0.4469 1.19166408,0.44691 1.0426999,0.37242 1.0426998,0.52137 1.0426999,0.4469 1.0426999,0.67034 0.9682178,0.59586 0.9682179,0.67034 0.9682178,0.67033 1.0426999,0.74483 0.893736,0.67033 0.893735,0.81931 0.893736,0.74482 0.968218,0.89378 0.819254,0.81931 0.893735,0.89378 0.819254,0.96832 0.893736,0.96831 0.744771,0.89379 0.744772,0.89378 0.744772,0.96827 0.819253,1.04275 0.67029,0.96831 0.744771,1.04275 0.67029,0.96832 0.744771,1.11728 0.595808,1.04275 0.670289,1.04275 0.67029,1.04275 0.670289,1.11728 0.595808,1.04275 0.595807,1.11728 0.595808,1.11728 0.595807,1.11728 0.521326,1.04275 0.521325,1.04279 0.521325,1.04275 0.521326,1.11728 0.446868,1.04275 0.521325,1.0428 0.521325,1.04275 0.521326,1.11728 0.372395,0.96832 0.446868,1.04275 0.446873,0.96831 0.446868,1.04275 0.37239,0.96832 0.372391,0.96831 0.372396,0.96827 0.446868,0.96832 0.148959,0.67034 0.223431,0.67033 0.07448,0.67034 0.148955,0.74482 0,1.34068 -0.07448,0.67034 0,0.67034 -0.223437,0.59585 -0.148954,0.59586 -0.223436,0.52138 -0.14896,0.59585 -0.297913,0.52138 -0.223432,0.52137 -0.297913,0.4469 -0.297914,0.44691 -0.744771,0.67033 -0.744772,0.44691 -0.446873,0.0745 -0.446868,0.14897 -0.446872,0 -0.372391,0.0745 -0.521326,-0.14897 -0.446872,-0.14897 -0.446868,-0.29794 -0.446873,-0.22345 -0.446868,-0.52137 -0.446873,-0.4469 -0.446868,-0.52138 -0.446872,-0.59586 -0.446868,-0.74482 -0.446873,-0.74482 -0.372391,-0.74482 -0.37239,-0.67034 -0.446873,-0.74482 -0.372391,-0.74482 -0.372391,-0.74482 -0.37239,-0.67034 -0.446873,-0.8193 -0.297914,-0.74482 -0.446868,-0.74482 -0.297913,-0.74482 -0.372391,-0.8193 -0.297913,-0.67034 -0.372391,-0.81931 -0.297914,-0.67034 -0.446872,-0.8193 -0.297914,-0.8193 -0.372391,-0.8193 -0.297913,-0.74482 -0.446873,-0.81931 -0.297909,-0.74482 -0.372395,-0.8193 -0.297914,-0.67034 -0.37239,-0.8193 -0.372391,-0.74482 -0.372391,-0.81931 -0.297913,-0.74482 -0.446873,-0.74482 -0.297914,-0.74482 -0.446868,-0.74482 -0.297913,-0.67034 -0.446873,-0.74482 -0.446868,-0.74482 -0.446873,-0.74482 -0.37239,-0.67034 -0.446868,-0.67034 -0.446873,-0.67034 -0.446868,-0.67033 -0.446873,-0.67034 -0.521325,-0.67034 -0.446873,-0.67034 -0.521325,-0.59586 -0.446873,-0.59585 -0.5213254,-0.67034 -0.5213253,-0.52138 -0.5213254,-0.59585 -0.5213254,-0.44691 -0.5958074,-0.59586 -0.5958074,-0.52137 -0.5958075,-0.4469 -0.5958074,-0.44691 -0.6702895,-0.52138 -0.5958075,-0.4469 -0.6702895,-0.37242 -0.5958074,-0.37242 -0.7447716,-0.4469 -0.6702895,-0.29794 -0.74477162,-0.37241 -0.74477159,-0.22346 -0.81925366,-0.29793 -0.74477163,-0.22345 -0.7447716,-0.22346 -0.7447715,-0.14896 -0.8937358,-0.22346 -0.8937357,-0.22345 -0.8937358,-0.22345 -0.8937357,-0.14897 -0.8937357,-0.22345 -0.8937358,-0.0745 -0.8937357,-0.14897 -0.893736,0 -0.968218,-0.14897 -0.893735,-0.0745 -1.787472,0 -0.968218,-0.0745 -0.893735,0 -0.893736,0.0745 -0.893736,0.0745 -1.861953,0 -0.968218,0.0745 -0.893736,0.14897 -0.968218,0.0745 -0.893736,0.14896 -0.893735,0.0745 -0.893736,0.22345 -0.968218,0.0745 -0.893736,0.14897 -0.893735,0.14897 -0.893736,0.22345 -0.893736,0.22345 -0.893736,0.22346 -0.893735,0.22345 -0.819254,0.22345 -0.893736,0.22345 -0.893735,0.22345 -0.893736,0.22345 -0.893736,0.22345 -0.893736,0.22346 -0.819253,0.29793 -0.819254,0.29794 -0.819254,0.29793 -0.893735,0.22345 -0.819254,0.29794 -0.819254,0.29794 -0.819253,0.29793 -0.819254,0.29794 -0.744772,0.37242 -0.819253,0.29793 -0.67029,0.37242 -0.819253,0.29794 -0.744772,0.37241 -0.744772,0.29794 -0.670289,0.37242 -0.744772,0.29794 -0.670289,0.37242 -0.67029,0.29793 -0.670289,0.44691 -0.67029,0.29793 -0.670289,0.37242 -0.595808,0.37242 -0.595807,0.37242 -0.67029,0.29793 -0.521325,0.44691 -0.595807,0.29793 -0.446868,0.44691 -0.595808,0.22345 -0.595807,0.37242 -0.67029,0.4469 -0.670289,0.67034 -0.744772,0.59585 -0.744771,0.67034 -0.372391,0.37242 -0.372396,0.37242 -0.372391,0.44691 -0.37239,0.4469 -0.446868,0.37242 -0.446873,0.37241 -0.446868,0.44691 -0.446873,0.4469 -0.446867,0.44691 -0.446873,0.4469 -0.446868,0.4469 -0.372391,0.52138 -0.446873,0.4469 -0.446867,0.44691 -0.446873,0.4469 -0.446868,0.52138 -0.446873,0.4469 -0.446868,0.52137 -0.446873,0.4469 -0.446867,0.52138 -0.521326,0.37242 -0.446873,0.4469 -0.446872,0.4469 -0.446868,0.44691 -0.446873,0.37242 -0.446873,0.4469 -0.446868,0.37242 -0.446872,0.4469 -0.446868,0.29794 -0.446873,0.4469 -0.446873,0.29794 -0.446868,0.4469 -0.819253,0.59586 -0.744772,0.67034 -0.819254,0.37242 -0.744771,0.4469 -0.67029,0.29793 -0.670289,0.29794 -0.67029,0.0745 -0.521325,0 -0.521326,-0.14896 -0.446872,-0.14897 -0.819254,-0.67034 -0.595807,-0.59586 -0.595808,-0.59585 -0.372391,-0.59586 -0.446867,-0.67034 -0.223437,-0.59585 -0.223436,-0.67034 -0.07448,-0.59586 -0.148955,-0.67034 0.07448,-0.67034 0,-0.67033 0.148955,-0.59586 0.148954,-0.67034 0.223436,-0.59586 0.297914,-0.59585 0.372391,-0.59586 0.223436,-0.67034 0.372391,-0.67034 0.446873,-0.59585 0.446872,-0.59586 0.446868,-0.59586 0.446873,-0.52137 0.446873,-0.59586 0.521325,-0.52137 0.446868,-0.59586 0.446873,-0.52137 0.446868,-0.44691 0.521325,-0.4469 0.446873,-0.4469 0.446873,-0.44691 0.446868,-0.4469 0.446872,-0.29793 0.595808,-0.81931 0.670289,-0.74482 0.67029,-0.74482 0.670289,-0.67034 0.67029,-0.74482 0.670289,-0.67034 0.67029,-0.59585 0.744771,-0.59586 0.67029,-0.67034 0.67029,-0.59585 0.744771,-0.59586 0.744772,-0.52138 0.670289,-0.59585 0.744772,-0.52138 0.744771,-0.4469 0.819254,-0.44691 0.67029,-0.52137 0.819253,-0.52138 0.744772,-0.4469 0.819253,-0.37242 0.744772,-0.4469 0.893736,-0.4469 0.744771,-0.37242 0.893736,-0.37242 0.819254,-0.4469 0.819253,-0.37243 0.819254,-0.37242 0.893736,-0.29793 0.893736,-0.37242 0.893735,-0.29793 0.893736,-0.37242 0.893736,-0.22345 0.893736,-0.37242 0.893735,-0.29794 0.893736,-0.37242 0.893736,-0.22345 0.893736,-0.29794 0.968217,-0.29793 0.968218,-0.29794 0.968218,-0.22345 0.893736,-0.29794 0.968218,-0.22345 0.968217,-0.29793 1.0427,-0.22345 0.968218,-0.29794 1.0427,-0.22345 0.968218,-0.22345 1.117182,-0.22345 0.968218,-0.29794 1.042699,-0.22345 1.0427,-0.29794 1.117182,-0.22345 1.0427,-0.29794 1.117182,-0.22345 1.117182,-0.22345 1.117182,-0.22345 1.117182,-0.29793 1.117182,-0.22346 1.117182,-0.29793 1.191664,-0.22345 1.117182,-0.29794 1.191664,-0.22345 1.191664,-0.29794 1.266146,-0.22345 z" />
    </g>
    <g
       transform="matrix(0.49163086,0,0,0.49163086,-98.956567,269.09099)"
       id="g4178">
      <ellipse
         style="fill:#000000;fill-rule:evenodd;stroke:#000000;stroke-width:0.8264215px;stroke-linecap:butt;stroke-linejoin:miter;stroke-opacity:1"
         id="path4174"
         cx="152.78828"
         cy="382.94763"
         rx="117.81075"
         ry="41.543274"
         transform="matrix(0.83195209,0.55484747,-0.35764761,0.93385662,0,0)" />
      <ellipse
         transform="matrix(0.99350379,0.11379907,0.10817373,0.99413201,0,0)"
         ry="41.543274"
         rx="117.81075"
         cy="420.57892"
         cx="-159.40175"
         id="ellipse4176"
         style="fill:#000000;fill-rule:evenodd;stroke:#000000;stroke-width:0.8264215px;stroke-linecap:butt;stroke-linejoin:miter;stroke-opacity:1" />
    </g>
    <g
       transform="matrix(-0.49163086,0,0,0.49163086,79.881296,269.83626)"
       id="g4182">
      <ellipse
         transform="matrix(0.83195209,0.55484747,-0.35764761,0.93385662,0,0)"
         ry="41.543274"
         rx="117.81075"
         cy="382.94763"
         cx="152.78828"
         id="ellipse4184"
         style="fill:#000000;fill-rule:evenodd;stroke:#000000;stroke-width:0.8264215px;stroke-linecap:butt;stroke-linejoin:miter;stroke-opacity:1" />
      <ellipse
         style="fill:#000000;fill-rule:evenodd;stroke:#000000;stroke-width:0.8264215px;stroke-linecap:butt;stroke-linejoin:miter;stroke-opacity:1"
         id="ellipse4186"
         cx="-159.40175"
         cy="420.57892"
         rx="117.81075"
         ry="41.543274"
         transform="matrix(0.99350379,0.11379907,0.10817373,0.99413201,0,0)" />
    </g>
  </g>
</svg>
